<svg width="22" height="17" viewBox="0 0 22 17" fill="none" xmlns="http://www.w3.org/2000/svg">
<path d="M11.3548 16.055C11.3541 15.9308 11.3814 15.8076 11.435 15.6929C11.4887 15.5781 11.5675 15.474 11.6671 15.3867L19.4309 8.48862L11.6671 1.59058C11.479 1.41128 11.3767 1.17414 11.3815 0.929116C11.3864 0.684089 11.4981 0.450306 11.6931 0.277018C11.8882 0.103731 12.1513 0.00447038 12.4271 0.000147166C12.7029 -0.00417604 12.9698 0.0867759 13.1716 0.253842L21.6877 7.82025C21.8871 7.99759 21.999 8.23798 21.999 8.48862C21.999 8.73926 21.8871 8.97965 21.6877 9.15699L13.1716 16.7234C12.972 16.9005 12.7014 17 12.4193 17C12.1372 17 11.8667 16.9005 11.6671 16.7234C11.5675 16.6361 11.4887 16.532 11.435 16.4172C11.3814 16.3024 11.3541 16.1793 11.3548 16.055Z" fill="#26AE7D"/>
<path d="M-4.65315e-08 8.48877C0.00367733 8.23894 0.117012 8.00027 0.315855 7.8236C0.5147 7.64693 0.783333 7.54623 1.06452 7.54297L20.9355 7.54297C21.2178 7.54297 21.4886 7.64262 21.6882 7.81999C21.8878 7.99736 22 8.23793 22 8.48877C22 8.73961 21.8878 8.98018 21.6882 9.15755C21.4886 9.33492 21.2178 9.43457 20.9355 9.43457L1.06452 9.43457C0.783333 9.4313 0.5147 9.33061 0.315855 9.15394C0.117012 8.97727 0.00367731 8.7386 -4.65315e-08 8.48877Z" fill="#26AE7D"/>
</svg>
