<svg width="26" height="26" viewBox="0 0 26 26" fill="none" xmlns="http://www.w3.org/2000/svg">
<path d="M15.4375 19.5H3.25L3.24756 7.23612L12.5377 13.6679C12.6735 13.7619 12.8348 13.8122 13 13.8122C13.1652 13.8122 13.3265 13.7619 13.4623 13.6679L22.75 7.23937V14.625H24.375V6.5C24.3744 6.06922 24.2029 5.65627 23.8983 5.35166C23.5937 5.04706 23.1808 4.87564 22.75 4.875H3.25C2.81916 4.87543 2.40608 5.04677 2.10143 5.35143C1.79677 5.65608 1.62543 6.06916 1.625 6.5V19.5C1.62564 19.9308 1.79706 20.3437 2.10166 20.6483C2.40627 20.9529 2.81922 21.1244 3.25 21.125H15.4375V19.5ZM20.9617 6.5L13 12.012L5.03831 6.5H20.9617Z" fill="#1B1B1B"/>
<path d="M21.125 22.75C22.9199 22.75 24.375 21.2949 24.375 19.5C24.375 17.7051 22.9199 16.25 21.125 16.25C19.3301 16.25 17.875 17.7051 17.875 19.5C17.875 21.2949 19.3301 22.75 21.125 22.75Z" fill="#1B1B1B"/>
</svg>
