<svg width="25" height="25" viewBox="0 0 25 25" fill="none" xmlns="http://www.w3.org/2000/svg">
<path d="M22.3141 17.5864L22.8652 18.1406L22.3131 17.5864H22.3141ZM9.18286 15.3406L9.73286 14.7864L9.18182 15.3406H9.18286ZM4.88495 4.30727L4.33495 3.75415L4.88599 4.30831L4.88495 4.30727ZM17.3204 14.4698L17.7964 13.9979L16.6933 12.8896L16.2204 13.3614L17.3204 14.4698ZM19.3891 13.8L21.3797 14.8823L22.1245 13.5094L20.1349 12.4281L19.3891 13.8ZM21.762 17.0323L20.2829 18.5041L21.3839 19.6114L22.8631 18.1406L21.762 17.0323ZM19.3808 18.9771C17.8704 19.1187 13.9641 18.9927 9.73286 14.7864L8.63078 15.8937C13.2474 20.4844 17.6422 20.7094 19.5266 20.5333L19.3797 18.9771H19.3808ZM9.73286 14.7864C5.70057 10.776 5.03182 7.40415 4.94849 5.9406L3.38807 6.02915C3.49224 7.87081 4.32036 11.6083 8.63078 15.8937L9.73286 14.7864ZM11.1652 8.34894L11.4641 8.05102L10.3641 6.94373L10.0652 7.2406L11.1662 8.3479L11.1652 8.34894ZM11.7016 4.26456L10.3891 2.5104L9.13807 3.4479L10.4506 5.20102L11.7016 4.26456ZM5.9714 2.1281L4.33599 3.7531L5.43807 4.86144L7.07245 3.23644L5.9714 2.1281ZM10.6152 7.79477C10.0631 7.2406 10.0631 7.2406 10.0631 7.24269H10.061L10.0579 7.24685C10.0087 7.29705 9.96438 7.35181 9.92557 7.4104C9.86932 7.49373 9.80786 7.6031 9.75578 7.74165C9.62894 8.09927 9.59734 8.48374 9.66411 8.85727C9.8037 9.75831 10.4245 10.9489 12.0141 12.5302L13.1162 11.4219C11.6277 9.94269 11.2735 9.04269 11.2079 8.61769C11.1766 8.4156 11.2089 8.3156 11.2183 8.29269C11.2235 8.2781 11.2256 8.27706 11.2183 8.28644C11.2091 8.30088 11.1986 8.31448 11.187 8.32706L11.1766 8.33748C11.1732 8.34072 11.1698 8.34384 11.1662 8.34685L10.6141 7.79477H10.6152ZM12.0141 12.5302C13.6047 14.1114 14.8016 14.7281 15.7037 14.8656C16.1652 14.9364 16.537 14.8802 16.8193 14.775C16.9772 14.7166 17.1248 14.6336 17.2568 14.5291C17.2747 14.5142 17.2921 14.4985 17.3089 14.4823L17.3162 14.476L17.3193 14.4729L17.3204 14.4708C17.3204 14.4708 17.3214 14.4698 16.7704 13.9156C16.2183 13.3614 16.2214 13.3604 16.2214 13.3604L16.2235 13.3583L16.2256 13.3562L16.2318 13.351L16.2422 13.3406C16.2548 13.3294 16.268 13.3189 16.2818 13.3094C16.2922 13.3021 16.2891 13.3052 16.2745 13.3114C16.2485 13.3208 16.1464 13.3531 15.9412 13.3219C15.5099 13.2552 14.6037 12.901 13.1162 11.4219L12.0141 12.5302ZM10.3891 2.50935C9.32661 1.09269 7.23911 0.867687 5.9714 2.1281L7.07245 3.23644C7.62661 2.6854 8.60995 2.74269 9.13807 3.4479L10.3881 2.50935H10.3891ZM4.94953 5.94165C4.9287 5.58123 5.09432 5.20415 5.43807 4.86248L4.33495 3.75415C3.77557 4.3104 3.33495 5.0979 3.38807 6.02915L4.94953 5.94165ZM20.2829 18.5041C19.9974 18.7896 19.6891 18.95 19.3818 18.9781L19.5266 20.5333C20.2922 20.4614 20.9183 20.076 21.3849 19.6125L20.2829 18.5041ZM11.4641 8.05102C12.4902 7.03123 12.5662 5.41977 11.7027 4.2656L10.4516 5.20206C10.8714 5.76352 10.8089 6.49998 10.3631 6.94477L11.4641 8.05102ZM21.3808 14.8833C22.2318 15.3458 22.3641 16.4354 21.7631 17.0333L22.8652 18.1406C24.261 16.7521 23.8308 14.4364 22.1256 13.5104L21.3808 14.8833ZM17.7964 13.9989C18.1964 13.601 18.8402 13.5031 19.3902 13.801L20.136 12.4291C19.0068 11.8146 17.6068 11.9844 16.6943 12.8906L17.7964 13.9989Z" fill="#1B1B1B"/>
</svg>
