<svg width="22" height="22" viewBox="0 0 22 22" fill="none" xmlns="http://www.w3.org/2000/svg">
<path d="M11 16.5L6.81317 10.5875C6.12785 9.77836 5.68652 8.79117 5.54057 7.7409C5.39462 6.69063 5.55006 5.62051 5.98879 4.65517C6.42752 3.68983 7.13147 2.86899 8.01867 2.28827C8.90587 1.70754 9.9398 1.39082 11 1.375C12.4697 1.38952 13.8738 1.98591 14.9047 3.03353C15.9355 4.08116 16.5092 5.49463 16.5 6.96438C16.5006 8.24652 16.0641 9.49055 15.2625 10.4913L11 16.5ZM11 2.75C9.89444 2.7627 8.83907 3.21363 8.06566 4.0038C7.29226 4.79396 6.86404 5.85876 6.87504 6.96438C6.87964 7.9735 7.2427 8.94816 7.89942 9.71438L11 14.1075L14.1832 9.625C14.7882 8.86974 15.1202 7.9321 15.125 6.96438C15.136 5.85876 14.7078 4.79396 13.9344 4.0038C13.161 3.21363 12.1056 2.7627 11 2.75Z" fill="white"/>
<path d="M11 7.5625C11.7594 7.5625 12.375 6.94689 12.375 6.1875C12.375 5.42811 11.7594 4.8125 11 4.8125C10.2406 4.8125 9.625 5.42811 9.625 6.1875C9.625 6.94689 10.2406 7.5625 11 7.5625Z" fill="white"/>
<path d="M19.25 8.25H17.875V9.625H19.25V19.25H2.75V9.625H4.125V8.25H2.75C2.38533 8.25 2.03559 8.39487 1.77773 8.65273C1.51987 8.91059 1.375 9.26033 1.375 9.625V19.25C1.375 19.6147 1.51987 19.9644 1.77773 20.2223C2.03559 20.4801 2.38533 20.625 2.75 20.625H19.25C19.6147 20.625 19.9644 20.4801 20.2223 20.2223C20.4801 19.9644 20.625 19.6147 20.625 19.25V9.625C20.625 9.26033 20.4801 8.91059 20.2223 8.65273C19.9644 8.39487 19.6147 8.25 19.25 8.25Z" fill="white"/>
</svg>
