<svg width="22" height="22" viewBox="0 0 22 22" fill="none" xmlns="http://www.w3.org/2000/svg">
<path d="M13.0625 16.5H2.75L2.74794 6.12288L10.6088 11.5651C10.7238 11.6447 10.8602 11.6873 11 11.6873C11.1398 11.6873 11.2762 11.6447 11.3912 11.5651L19.25 6.12562V12.375H20.625V5.5C20.6245 5.13549 20.4794 4.78607 20.2217 4.52833C19.9639 4.27059 19.6145 4.12555 19.25 4.125H2.75C2.38544 4.12536 2.03591 4.27035 1.77813 4.52813C1.52035 4.78591 1.37536 5.13544 1.375 5.5V16.5C1.37555 16.8645 1.52059 17.2139 1.77833 17.4717C2.03607 17.7294 2.38549 17.8745 2.75 17.875H13.0625V16.5ZM17.7368 5.5L11 10.164L4.26319 5.5H17.7368Z" fill="white"/>
<path d="M17.875 19.25C19.3938 19.25 20.625 18.0188 20.625 16.5C20.625 14.9812 19.3938 13.75 17.875 13.75C16.3562 13.75 15.125 14.9812 15.125 16.5C15.125 18.0188 16.3562 19.25 17.875 19.25Z" fill="white"/>
</svg>
