<svg width="26" height="26" viewBox="0 0 26 26" fill="none" xmlns="http://www.w3.org/2000/svg">
<path d="M13.0004 19.5L8.05228 12.5125C7.24236 11.5562 6.72079 10.3896 6.5483 9.14834C6.37582 7.90711 6.55952 6.64242 7.07802 5.50156C7.59651 4.3607 8.42846 3.39063 9.47696 2.70432C10.5255 2.01801 11.7474 1.6437 13.0004 1.625C14.7373 1.64216 16.3966 2.34698 17.6149 3.58509C18.8333 4.82319 19.5112 6.49366 19.5004 8.23063C19.5011 9.74588 18.9852 11.2161 18.0379 12.3988L13.0004 19.5ZM13.0004 3.25C11.6938 3.265 10.4465 3.79793 9.5325 4.73176C8.61847 5.66559 8.1124 6.92398 8.1254 8.23063C8.13084 9.42323 8.55991 10.5751 9.33603 11.4806L13.0004 16.6725L16.7623 11.375C17.4774 10.4824 17.8696 9.3743 17.8754 8.23063C17.8884 6.92398 17.3823 5.66559 16.4683 4.73176C15.5543 3.79793 14.307 3.265 13.0004 3.25Z" fill="#1B1B1B"/>
<path d="M13 8.9375C13.8975 8.9375 14.625 8.20996 14.625 7.3125C14.625 6.41504 13.8975 5.6875 13 5.6875C12.1025 5.6875 11.375 6.41504 11.375 7.3125C11.375 8.20996 12.1025 8.9375 13 8.9375Z" fill="#1B1B1B"/>
<path d="M22.75 9.75H21.125V11.375H22.75V22.75H3.25V11.375H4.875V9.75H3.25C2.81902 9.75 2.4057 9.92121 2.10095 10.226C1.7962 10.5307 1.625 10.944 1.625 11.375V22.75C1.625 23.181 1.7962 23.5943 2.10095 23.899C2.4057 24.2038 2.81902 24.375 3.25 24.375H22.75C23.181 24.375 23.5943 24.2038 23.899 23.899C24.2038 23.5943 24.375 23.181 24.375 22.75V11.375C24.375 10.944 24.2038 10.5307 23.899 10.226C23.5943 9.92121 23.181 9.75 22.75 9.75Z" fill="#1B1B1B"/>
</svg>
