<svg width="19" height="18" viewBox="0 0 19 18" fill="none" xmlns="http://www.w3.org/2000/svg">
<path d="M7.98252 12.4789L4.31812 9.03775L5.5393 7.89124L7.98252 10.1843L12.8673 5.59741L14.0893 6.74473L7.98252 12.4773V12.4789Z" fill="#26AE7D"/>
<path fill-rule="evenodd" clip-rule="evenodd" d="M0 8.98111C0 4.05533 4.25341 0.0620117 9.5 0.0620117C14.7466 0.0620117 19 4.05533 19 8.98111C19 13.9069 14.7466 17.9002 9.5 17.9002C4.25341 17.9002 0 13.9069 0 8.98111ZM9.5 16.2785C8.47927 16.2785 7.46854 16.0898 6.52551 15.7231C5.58248 15.3563 4.72562 14.8188 4.00385 14.1412C3.28209 13.4635 2.70955 12.6591 2.31894 11.7737C1.92832 10.8884 1.72727 9.93942 1.72727 8.98111C1.72727 8.02279 1.92832 7.07386 2.31894 6.1885C2.70955 5.30313 3.28209 4.49867 4.00385 3.82104C4.72562 3.14341 5.58248 2.60588 6.52551 2.23915C7.46854 1.87242 8.47927 1.68367 9.5 1.68367C11.5615 1.68367 13.5385 2.4525 14.9961 3.82104C16.4538 5.18957 17.2727 7.04571 17.2727 8.98111C17.2727 10.9165 16.4538 12.7726 14.9961 14.1412C13.5385 15.5097 11.5615 16.2785 9.5 16.2785Z" fill="#26AE7D"/>
</svg>
