<svg width="17" height="14" viewBox="0 0 17 14" fill="none" xmlns="http://www.w3.org/2000/svg">
<path d="M15.6923 0H1.30769C0.960871 0 0.628254 0.13409 0.383014 0.372773C0.137774 0.611456 0 0.935179 0 1.27273V12.7273C0 13.0648 0.137774 13.3885 0.383014 13.6272C0.628254 13.8659 0.960871 14 1.30769 14H15.6923C16.0391 14 16.3717 13.8659 16.617 13.6272C16.8622 13.3885 17 13.0648 17 12.7273V1.27273C17 0.935179 16.8622 0.611456 16.617 0.372773C16.3717 0.13409 16.0391 0 15.6923 0ZM14.8472 3.63205L7.00106 11.2684C6.94033 11.3276 6.86822 11.3745 6.78885 11.4065C6.70947 11.4386 6.62439 11.455 6.53846 11.455C6.45254 11.455 6.36745 11.4386 6.28808 11.4065C6.2087 11.3745 6.13659 11.3276 6.07586 11.2684L2.80663 8.08659C2.68395 7.96718 2.61502 7.80523 2.61502 7.63636C2.61502 7.4675 2.68395 7.30554 2.80663 7.18614C2.92932 7.06673 3.09572 6.99965 3.26923 6.99965C3.44274 6.99965 3.60914 7.06673 3.73183 7.18614L6.53846 9.91852L13.922 2.73159C14.0447 2.61218 14.2111 2.5451 14.3846 2.5451C14.5581 2.5451 14.7245 2.61218 14.8472 2.73159C14.9699 2.851 15.0388 3.01295 15.0388 3.18182C15.0388 3.35069 14.9699 3.51264 14.8472 3.63205Z" fill="#26AE7D"/>
</svg>
