<svg width="24" height="25" viewBox="0 0 24 25" fill="none" xmlns="http://www.w3.org/2000/svg">
<path d="M9.00015 16.7445L5.53015 13.2745C5.34317 13.0875 5.08957 12.9825 4.82515 12.9825C4.56072 12.9825 4.30712 13.0875 4.12015 13.2745C3.93317 13.4615 3.82813 13.7151 3.82812 13.9795C3.82813 14.1104 3.85391 14.2401 3.90402 14.361C3.95412 14.482 4.02756 14.5919 4.12015 14.6845L8.30015 18.8645C8.69015 19.2545 9.32015 19.2545 9.71015 18.8645L20.2901 8.28448C20.4771 8.0975 20.5822 7.84391 20.5822 7.57948C20.5822 7.31505 20.4771 7.06146 20.2901 6.87448C20.1032 6.6875 19.8496 6.58246 19.5851 6.58246C19.3207 6.58246 19.0671 6.6875 18.8801 6.87448L9.00015 16.7445Z" fill="#26AE7D"/>
</svg>
