<svg width="20" height="20" viewBox="0 0 20 20" fill="none" xmlns="http://www.w3.org/2000/svg">
<path fill-rule="evenodd" clip-rule="evenodd" d="M5.57097 0.677191C6.66588 0.23011 7.83939 0 9.0245 0C10.2096 0 11.3831 0.23011 12.478 0.677191C13.5729 1.12427 14.5678 1.77957 15.4058 2.60567C16.2438 3.43176 16.9085 4.41249 17.3621 5.49184C17.8156 6.57119 18.049 7.72803 18.049 8.8963C18.049 10.0646 17.8156 11.2214 17.3621 12.3008C17.065 13.0078 16.6773 13.6725 16.2096 14.2792L19.6428 17.6636C20.1191 18.1331 20.1191 18.8943 19.6428 19.3638C19.1666 19.8333 18.3944 19.8333 17.9182 19.3638L14.485 15.9793C12.9236 17.1491 11.0077 17.7926 9.0245 17.7926C6.63105 17.7926 4.33564 16.8553 2.64321 15.1869C0.950793 13.5186 0 11.2558 0 8.8963C0 6.53686 0.950793 4.27405 2.64321 2.60567C3.48122 1.77957 4.47607 1.12427 5.57097 0.677191ZM9.0245 2.40435C8.15968 2.40435 7.30333 2.57227 6.50434 2.89852C5.70535 3.22477 4.97937 3.70297 4.36785 4.3058C3.13283 5.52328 2.439 7.17453 2.439 8.8963C2.439 10.6181 3.13283 12.2693 4.36785 13.4868C5.60287 14.7043 7.27792 15.3883 9.0245 15.3883C10.7711 15.3883 12.4461 14.7043 13.6812 13.4868C14.2927 12.884 14.7778 12.1683 15.1087 11.3807C15.4397 10.593 15.61 9.74884 15.61 8.8963C15.61 8.04377 15.4397 7.19958 15.1087 6.41194C14.7778 5.6243 14.2927 4.90864 13.6812 4.3058C13.0696 3.70297 12.3437 3.22477 11.5447 2.89852C10.7457 2.57227 9.88932 2.40435 9.0245 2.40435Z" fill="black"/>
</svg>
