<svg width="21" height="21" viewBox="0 0 21 21" fill="none" xmlns="http://www.w3.org/2000/svg">
<path d="M18.7442 14.7727L19.207 15.2382L18.7433 14.7727H18.7442ZM7.71391 12.8862L8.17591 12.4207L7.71303 12.8862H7.71391ZM4.10366 3.61815L3.64166 3.15353L4.10453 3.61903L4.10366 3.61815ZM14.5494 12.1547L14.9493 11.7583L14.0227 10.8273L13.6254 11.2237L14.5494 12.1547ZM16.2872 11.592L17.9593 12.5012L18.5849 11.3479L16.9137 10.4397L16.2872 11.592ZM18.2804 14.3072L17.0379 15.5435L17.9628 16.4737L19.2053 15.2382L18.2804 14.3072ZM16.2802 15.9408C15.0114 16.0598 11.7302 15.9539 8.17591 12.4207L7.25016 13.3508C11.1282 17.2069 14.8198 17.3959 16.4027 17.248L16.2793 15.9408H16.2802ZM8.17591 12.4207C4.78878 9.0519 4.22703 6.21953 4.15703 4.99015L2.84628 5.06453C2.93378 6.61153 3.62941 9.75103 7.25016 13.3508L8.17591 12.4207ZM9.37903 7.01315L9.63016 6.7629L8.70616 5.83278L8.45503 6.08215L9.37991 7.01228L9.37903 7.01315ZM9.82966 3.58228L8.72716 2.10878L7.67628 2.89628L8.77878 4.3689L9.82966 3.58228ZM5.01628 1.78765L3.64253 3.15265L4.56828 4.08365L5.94116 2.71865L5.01628 1.78765ZM8.91703 6.54765C8.45328 6.08215 8.45328 6.08215 8.45328 6.0839H8.45153L8.44891 6.0874C8.40759 6.12957 8.37039 6.17557 8.33778 6.22478C8.29053 6.29478 8.23891 6.38665 8.19516 6.50303C8.08861 6.80343 8.06207 7.12639 8.11816 7.44015C8.23541 8.19703 8.75691 9.19715 10.0922 10.5254L11.0179 9.5944C9.76753 8.3519 9.47003 7.5959 9.41491 7.2389C9.38866 7.06915 9.41578 6.98515 9.42366 6.9659C9.42803 6.95365 9.42978 6.95278 9.42366 6.96065C9.41594 6.97278 9.40716 6.98421 9.39741 6.99478L9.38866 7.00353C9.38583 7.00625 9.38291 7.00887 9.37991 7.0114L8.91616 6.54765H8.91703ZM10.0922 10.5254C11.4283 11.8537 12.4337 12.3717 13.1914 12.4872C13.579 12.5467 13.8914 12.4994 14.1285 12.411C14.2611 12.362 14.3852 12.2923 14.496 12.2045C14.5111 12.1919 14.5257 12.1788 14.5398 12.1652L14.5459 12.1599L14.5485 12.1573L14.5494 12.1555C14.5494 12.1555 14.5503 12.1547 14.0874 11.6892C13.6237 11.2237 13.6263 11.2228 13.6263 11.2228L13.628 11.221L13.6298 11.2193L13.635 11.2149L13.6438 11.2062C13.6543 11.1967 13.6654 11.1879 13.677 11.1799C13.6858 11.1738 13.6832 11.1764 13.6709 11.1817C13.649 11.1895 13.5633 11.2167 13.3909 11.1904C13.0287 11.1344 12.2674 10.8369 11.0179 9.5944L10.0922 10.5254ZM8.72716 2.1079C7.83466 0.917901 6.08116 0.728901 5.01628 1.78765L5.94116 2.71865C6.40666 2.25578 7.23266 2.3039 7.67628 2.89628L8.72628 2.1079H8.72716ZM4.15791 4.99103C4.14041 4.68828 4.27953 4.37153 4.56828 4.08453L3.64166 3.15353C3.17178 3.62078 2.80166 4.28228 2.84628 5.06453L4.15791 4.99103ZM17.0379 15.5435C16.7982 15.7833 16.5392 15.918 16.281 15.9417L16.4027 17.248C17.0458 17.1877 17.5717 16.8639 17.9637 16.4745L17.0379 15.5435ZM9.63016 6.7629C10.492 5.90628 10.5559 4.55265 9.83053 3.58315L8.77966 4.36978C9.13228 4.8414 9.07978 5.46003 8.70528 5.83365L9.63016 6.7629ZM17.9602 12.502C18.675 12.8905 18.7862 13.8058 18.2813 14.308L19.207 15.2382C20.3795 14.0718 20.0182 12.1267 18.5858 11.3488L17.9602 12.502ZM14.9493 11.7592C15.2853 11.4249 15.826 11.3427 16.288 11.5929L16.9145 10.4405C15.966 9.92428 14.79 10.0669 14.0235 10.8282L14.9493 11.7592Z" fill="white"/>
</svg>
