<svg width="12" height="13" viewBox="0 0 12 13" fill="none" xmlns="http://www.w3.org/2000/svg">
<path d="M8.37118 8.58537L8.06785 8.9106C8.06785 8.9106 7.34585 9.68311 5.37587 7.57377C3.40588 5.46443 4.12788 4.69192 4.12788 4.69192L4.31854 4.48658C4.78987 3.98258 4.83454 3.17273 4.42321 2.58114L3.58321 1.37283C3.07388 0.640515 2.09056 0.543591 1.50723 1.16821L0.460568 2.28821C0.171903 2.59837 -0.0214292 2.99899 0.00190399 3.44412C0.0619036 4.5835 0.540567 7.03387 3.20988 9.89276C6.0412 12.9239 8.69785 13.0446 9.78384 12.9354C10.1278 12.901 10.4265 12.7129 10.6672 12.4544L11.6138 11.4407C12.2538 10.7565 12.0738 9.5826 11.2552 9.10373L9.98184 8.35778C9.44451 8.04331 8.79118 8.13593 8.37118 8.58537Z" fill="white"/>
</svg>
